<svg width="360" height="280" viewBox="0 0 360 280" fill="none" xmlns="http://www.w3.org/2000/svg">
  <rect width="360" height="280" rx="28" fill="#ff6507" fill-opacity="0.08"/>
  <rect x="52" y="70" width="150" height="112" rx="20" fill="#fff" stroke="#ff6507" stroke-width="6"/>
  <path d="M96 182L96 210L128 182" fill="#fff" stroke="#ff6507" stroke-width="6" stroke-linejoin="round"/>
  <path d="M104 108C104 96 114 88 127 88C140 88 150 96 150 108C150 120 138 122 138 132" stroke="#FF6507" stroke-width="9" stroke-linecap="round"/>
  <circle cx="138" cy="150" r="5.5" fill="#FF6507"/>
  <rect x="176" y="110" width="132" height="96" rx="20" fill="#ff6507"/>
  <rect x="198" y="140" width="88" height="10" rx="5" fill="#fff"/>
  <rect x="198" y="164" width="60" height="10" rx="5" fill="#fff" fill-opacity="0.7"/>
  <path d="M214 206L214 228L242 206" fill="#ff6507"/>
</svg>
