<svg width="64" height="64" viewBox="0 0 64 64" fill="none" xmlns="http://www.w3.org/2000/svg">
  <rect width="64" height="64" rx="16" fill="#ff6507" fill-opacity="0.1"/>
  <path d="M31 12L50 20V31C50 43 42 50 31 54C20 50 12 43 12 31V20L31 12Z" fill="none"/>
  <circle cx="32" cy="32" r="18" stroke="#ff6507" stroke-width="4"/>
  <path d="M36 26H30.5C28 26 26 28 26 30.5C26 33 28 34.5 30.5 34.5H33.5C36 34.5 38 36 38 38.5C38 41 36 43 33.5 43H27" stroke="#FF6507" stroke-width="4" stroke-linecap="round"/>
  <path d="M32 22V26" stroke="#FF6507" stroke-width="4" stroke-linecap="round"/>
  <path d="M32 43V47" stroke="#FF6507" stroke-width="4" stroke-linecap="round"/>
</svg>
