<svg width="640" height="520" viewBox="0 0 640 520" fill="none" xmlns="http://www.w3.org/2000/svg">
  <rect width="640" height="520" rx="36" fill="#FFF9F2"/>
  <path d="M120 136C120 111.699 139.699 92 164 92H476C500.301 92 520 111.699 520 136V390C520 414.301 500.301 434 476 434H164C139.699 434 120 414.301 120 390V136Z" fill="#112F3A"/>
  <rect x="154" y="128" width="118" height="270" rx="26" fill="#1A4D57"/>
  <rect x="180" y="162" width="68" height="68" rx="18" fill="#FFD38D"/>
  <rect x="170" y="252" width="88" height="12" rx="6" fill="#FFF3E6"/>
  <rect x="170" y="276" width="78" height="12" rx="6" fill="#90D7CA"/>
  <rect x="284" y="128" width="92" height="270" rx="26" fill="#F2F0EA"/>
  <rect x="308" y="168" width="44" height="44" rx="14" fill="#F78F37"/>
  <rect x="302" y="240" width="56" height="12" rx="6" fill="#18212B"/>
  <rect x="300" y="264" width="60" height="12" rx="6" fill="#667079"/>
  <rect x="388" y="128" width="98" height="270" rx="26" fill="#FFF2D8"/>
  <rect x="412" y="158" width="50" height="96" rx="18" fill="#D4ECE4"/>
  <rect x="402" y="282" width="70" height="12" rx="6" fill="#18212B"/>
  <rect x="402" y="306" width="60" height="12" rx="6" fill="#6A7077"/>
  <path d="M238 261H285" stroke="#FFD38D" stroke-width="10" stroke-linecap="round"/>
  <path d="M374 261H390" stroke="#FFD38D" stroke-width="10" stroke-linecap="round"/>
  <circle cx="98" cy="242" r="46" fill="#D8EFE7"/>
  <circle cx="548" cy="316" r="60" fill="#FFE1AB"/>
</svg>
