<svg width="760" height="620" viewBox="0 0 760 620" fill="none" xmlns="http://www.w3.org/2000/svg">
  <rect width="760" height="620" rx="40" fill="#FFF8EF"/>
  <rect x="28" y="28" width="704" height="564" rx="32" fill="url(#paint0_linear)"/>
  <circle cx="582" cy="146" r="90" fill="#FFD089"/>
  <circle cx="167" cy="489" r="124" fill="#D6EFE8"/>
  <rect x="78" y="84" width="270" height="186" rx="28" fill="#102F3A"/>
  <rect x="102" y="112" width="112" height="14" rx="7" fill="#FFF4E0"/>
  <rect x="102" y="142" width="186" height="14" rx="7" fill="#6FC0B5"/>
  <rect x="102" y="176" width="214" height="52" rx="16" fill="#F78F37"/>
  <rect x="390" y="110" width="276" height="332" rx="34" fill="#FFF7EA"/>
  <rect x="416" y="144" width="224" height="112" rx="20" fill="#FFE4B1"/>
  <rect x="434" y="164" width="94" height="12" rx="6" fill="#18212B"/>
  <rect x="434" y="188" width="146" height="12" rx="6" fill="#55606A"/>
  <rect x="434" y="220" width="178" height="20" rx="10" fill="#F7A03A"/>
  <rect x="416" y="280" width="62" height="114" rx="18" fill="#D8EFE7"/>
  <rect x="490" y="280" width="62" height="114" rx="18" fill="#102F3A"/>
  <rect x="564" y="280" width="62" height="114" rx="18" fill="#FFD694"/>
  <path d="M108 338C108 322.536 120.536 310 136 310H286C301.464 310 314 322.536 314 338V470C314 485.464 301.464 498 286 498H136C120.536 498 108 485.464 108 470V338Z" fill="#FFF7EA"/>
  <circle cx="168" cy="372" r="28" fill="#F78F37"/>
  <rect x="208" y="352" width="84" height="12" rx="6" fill="#18212B"/>
  <rect x="208" y="377" width="62" height="10" rx="5" fill="#6C7279"/>
  <rect x="136" y="423" width="150" height="16" rx="8" fill="#DDEFE9"/>
  <rect x="342" y="458" width="282" height="78" rx="24" fill="#102F3A"/>
  <rect x="370" y="485" width="118" height="14" rx="7" fill="#FFF4E0"/>
  <rect x="370" y="508" width="168" height="10" rx="5" fill="#7ED1C5"/>
  <circle cx="596" cy="497" r="24" fill="#F78F37"/>
  <defs>
    <linearGradient id="paint0_linear" x1="80" y1="56" x2="672" y2="564" gradientUnits="userSpaceOnUse">
      <stop stop-color="#FFF1D8"/>
      <stop offset="1" stop-color="#FFFDF8"/>
    </linearGradient>
  </defs>
</svg>
